<mxfile host="app.diagrams.net" modified="2020-05-19T05:57:16.100Z" agent="5.0 (Windows)" etag="t0Ef9lIATeaTPHlIWjNl" version="13.1.2" type="github">
  <diagram id="a5ZCQRoC8HHq0zrIEyIl" name="Page-1">
    <mxGraphModel dx="862" dy="564" grid="1" gridSize="10" guides="1" tooltips="1" connect="1" arrows="1" fold="1" page="1" pageScale="1" pageWidth="1169" pageHeight="826" math="0" shadow="0">
      <root>
        <mxCell id="0" />
        <mxCell id="1" parent="0" />
        <mxCell id="Rf3Ziej8t9q3p-RCfU4I-1" value="Prepare Peanut Butter And Jelly" style="text;html=1;align=center;verticalAlign=middle;resizable=0;points=[];autosize=1;fontSize=18;fontStyle=1" vertex="1" parent="1">
          <mxGeometry x="837" y="5" width="290" height="30" as="geometry" />
        </mxCell>
        <mxCell id="Rf3Ziej8t9q3p-RCfU4I-2" value="Kalpesh Patil" style="text;html=1;align=center;verticalAlign=middle;resizable=0;points=[];autosize=1;fontSize=15;" vertex="1" parent="1">
          <mxGeometry x="1027" y="48" width="100" height="20" as="geometry" />
        </mxCell>
      </root>
    </mxGraphModel>
  </diagram>
</mxfile>
